<svg width="32" height="32" viewBox="0 0 32 32" fill="none" xmlns="http://www.w3.org/2000/svg">
  <!-- 定义阴影滤镜 -->
  <defs>
    <filter id="icon-shadow" x="-20%" y="-20%" width="140%" height="140%">
      <feGaussianBlur in="SourceAlpha" stdDeviation="1"/>
      <feOffset dx="0.5" dy="1" result="offsetblur"/>
      <feComponentTransfer>
        <feFuncA type="linear" slope="0.3"/>
      </feComponentTransfer>
      <feMerge>
        <feMergeNode/>
        <feMergeNode in="SourceGraphic"/>
      </feMerge>
    </filter>
  </defs>
  
  <g filter="url(#icon-shadow)">
    <!-- 土壤/地基部分 -->
    <path d="M6 26C6 24.8954 6.89543 24 8 24H24C25.1046 24 26 24.8954 26 26V27C26 27.5523 25.5523 28 25 28H7C6.44772 28 6 27.5523 6 27V26Z" fill="#8D6E63"/>
    
    <!-- 麦穗/嫩芽主体 -->
    <path d="M16 24V12" stroke="#27ae60" stroke-width="2" stroke-linecap="round"/>
    
    <!-- 左侧叶子 -->
    <path d="M16 20C16 20 11 18 11 13C11 13 11 11 13 11C15 11 16 15 16 15" fill="#27ae60"/>
    
    <!-- 右侧叶子 -->
    <path d="M16 17C16 17 21 15 21 10C21 10 21 8 19 8C17 8 16 12 16 12" fill="#2ecc71"/>
    
    <!-- 水滴/监测点 -->
    <path d="M22 22C22 23.6569 20.6569 25 19 25C17.3431 25 16 23.6569 16 22C16 19 19 16 19 16C19 16 22 19 22 22Z" fill="#3498db" fill-opacity="0.9"/>
    
    <!-- 传感器信号弧线 (扁平化表达) -->
    <path d="M10 10C8.5 11.5 8 13.5 8 15.5" stroke="#27ae60" stroke-width="1.5" stroke-linecap="round" opacity="0.6"/>
  </g>
</svg>
